<svg xmlns="http://www.w3.org/2000/svg" viewBox="0 0 362.49 361"><defs><style>.cls-1{fill:#143429;}.cls-2{fill:#b37d56;}.cls-3{fill:none;stroke:#000;stroke-miterlimit:10;}</style></defs><g id="Слой_2" data-name="Слой 2"><g id="Слой_1-2" data-name="Слой 1"><path class="cls-1" d="M90.24,270.44a119.49,119.49,0,0,0,60.49,17.06c34.51,0,54.67-18.22,54.67-44.59,0-24.43-14-38.39-49.24-52-42.66-15.12-69-37.22-69-74.06,0-40.71,33.73-71,84.53-71,26.75,0,46.14,6.21,57.77,12.8l-9.3,27.53A104.13,104.13,0,0,0,170.5,73.85c-35.67,0-49.24,21.33-49.24,39.16,0,24.43,15.9,36.45,52,50.41,44.2,17.06,66.69,38.39,66.69,76.78,0,40.32-29.86,75.22-91.51,75.22-25.2,0-52.73-7.37-66.69-16.67Z"/><path class="cls-2" d="M208.6,91.8h27.26l62.77,186.32H273.07L241,174.16c-6.54-20.73-12.78-41.18-18.47-62.77h-1.13c-6,21.59-11.93,42-18.46,62.77l-32.67,104H145.83ZM179.06,202.28h85.49V221.6H179.06Z"/><text/><circle class="cls-3" cx="181.99" cy="180.5" r="180"/></g></g></svg>