<svg id="Слой_1" data-name="Слой 1" xmlns="http://www.w3.org/2000/svg" xmlns:xlink="http://www.w3.org/1999/xlink" viewBox="0 0 1123.34 1280"><defs><style>.cls-1{fill:#143429;}.cls-2{fill:#b37d56;}</style></defs><path class="cls-1" d="M54,239.55a119.64,119.64,0,0,0,60.49,17.06c34.51,0,54.68-18.23,54.68-44.59,0-24.43-14-38.39-49.25-52-42.65-15.12-69-37.23-69-74.06,0-40.72,33.74-71,84.53-71,26.76,0,46.15,6.2,57.78,12.8l-9.31,27.53A104,104,0,0,0,134.25,43C98.58,43,85,64.28,85,82.12c0,24.43,15.89,36.45,52,50.41,44.21,17.06,66.7,38.39,66.7,76.77,0,40.33-29.86,75.23-91.51,75.23-25.21,0-52.74-7.37-66.7-16.68Z" transform="translate(860.96 421.16)"/><path class="cls-2" d="M172.34,60.9h27.27l62.77,186.32H236.82l-32.1-103.95c-6.53-20.73-12.78-41.18-18.46-62.77h-1.13c-6,21.59-11.93,42-18.47,62.77L134,247.22H109.57ZM142.81,171.39H228.3V190.7H142.81Z" transform="translate(860.96 421.16)"/><image width="590" height="1280" transform="translate(0)" xlink:href="../../../photo_2023-12-12_23-26-13.jpg"/></svg>