<svg id="Слой_1" data-name="Слой 1" xmlns="http://www.w3.org/2000/svg" viewBox="0 0 263.11 160.41"><defs><style>.cls-1{fill:#1e0030;}.cls-2,.cls-3{fill:#5d0089;}.cls-2{stroke:#009245;stroke-miterlimit:10;}</style></defs><path class="cls-1" d="M259.41,222s-18.27,14.51-61.92,10.4c-35.07-4.29-49.14-16.09-49.14-16.09l14.3-32.11c14.09,9.44,31.54,13,31.54,13a92.33,92.33,0,0,0,24,2.07s17.15-.36,19.85-9.3l41.83-18.06S290.34,201,259.41,222Z" transform="translate(-18.44 -72.67)"/><path class="cls-1" d="M194.09,120.82l-40.93-12.27c8.21-25.39,39-32.38,39-32.38h0C240,64.27,275,86.52,275,86.52l-13.41,32.32c-40.31-20.11-60.37-8.68-60.37-8.68A12.21,12.21,0,0,0,194.09,120.82Z" transform="translate(-18.44 -72.67)"/><path class="cls-1" d="M276.12,162.27,238,189.9c2.58-8.1-5.89-12.38-5.89-12.38-4.31-3.3-32.83-9.19-32.83-9.19l-9.72-2.65C145.87,155.92,151.2,120,151.2,120l42.89.82c-1.14,11,23.8,14.39,23.8,14.39,21.51,4,32.7,8.44,32.7,8.44C265.06,148.45,272.41,156.13,276.12,162.27Z" transform="translate(-18.44 -72.67)"/><path class="cls-2" d="M28,117.19" transform="translate(-18.44 -72.67)"/><polygon class="cls-3" points="116.77 129.52 57.71 129.52 54.44 137.6 45.37 160.06 0 160.06 13.48 129.51 13.49 129.51 13.49 129.52 13.53 129.52 13.49 129.51 27.96 96.72 69.41 2.83 108.89 2.83 91.12 46.82 70.96 96.72 103.61 96.72 116.77 129.52"/><polygon class="cls-3" points="13.53 129.52 13.49 129.52 13.49 129.51 13.53 129.52"/><polygon class="cls-3" points="182.84 160.06 136.56 160.06 124.31 129.52 111.15 96.72 111.14 96.72 95.77 58.42 95.77 58.41 108.89 2.83 113.2 2.83 182.84 160.06"/><polygon class="cls-3" points="13.53 129.52 13.49 129.52 13.49 129.51 13.53 129.52"/></svg>